<svg width="520" height="170" viewBox="0 0 520 170" fill="none" xmlns="http://www.w3.org/2000/svg">
  <defs>
    <linearGradient id="silverEdge" x1="40" y1="22" x2="482" y2="148" gradientUnits="userSpaceOnUse">
      <stop offset="0" stop-color="#ffffff"/>
      <stop offset="0.48" stop-color="#dbe2ed"/>
      <stop offset="1" stop-color="#f9fbff"/>
    </linearGradient>
  </defs>

  <g stroke="#0f172a" stroke-opacity="0.7" stroke-width="6.6" stroke-linecap="round" stroke-linejoin="round">
    <path d="M20 114C38 126 54 126 78 112L123 85C148 72 181 62 220 60C245 59 274 61 298 57C322 53 338 43 354 46C374 50 389 57 404 56L441 60C466 62 491 72 499 82C503 87 503 95 497 98"/>
    <path d="M496 99C486 98 479 92 473 86"/>
    <path d="M401 57C403 63 407 67 414 72"/>
    <path d="M326 63C313 70 304 78 295 89C287 100 285 119 283 143"/>
    <path d="M332 78C350 76 367 69 384 63C402 57 424 56 441 58C454 59 466 63 474 72"/>
    <path d="M473 72C465 80 469 90 481 96"/>
    <path d="M474 95C465 95 458 94 451 90"/>
    <path d="M279 141L304 141"/>
    <path d="M305 141C307 129 308 118 312 107C318 92 331 83 344 79"/>
    <path d="M398 95L414 121C420 130 430 139 447 141"/>
    <path d="M446 141L474 141"/>
    <path d="M127 85C113 97 100 111 88 116C77 121 67 126 55 128"/>
    <path d="M112 117C122 120 137 119 155 116C170 113 188 106 204 102C222 98 243 100 265 106"/>
    <path d="M142 117C127 123 118 132 110 142"/>
    <path d="M109 142L135 142"/>
    <path d="M232 107C237 112 238 118 235 124C232 129 228 132 226 137"/>
    <path d="M226 137L248 142"/>
    <path d="M206 133C197 137 194 142 198 146"/>
    <path d="M198 146L220 146"/>
    <path d="M66 127C58 132 54 138 56 143"/>
    <path d="M56 143L80 143"/>
  </g>

  <g stroke="url(#silverEdge)" stroke-width="4.2" stroke-linecap="round" stroke-linejoin="round">
    <path d="M20 114C38 126 54 126 78 112L123 85C148 72 181 62 220 60C245 59 274 61 298 57C322 53 338 43 354 46C374 50 389 57 404 56L441 60C466 62 491 72 499 82C503 87 503 95 497 98"/>
    <path d="M496 99C486 98 479 92 473 86"/>
    <path d="M401 57C403 63 407 67 414 72"/>
    <path d="M326 63C313 70 304 78 295 89C287 100 285 119 283 143"/>
    <path d="M332 78C350 76 367 69 384 63C402 57 424 56 441 58C454 59 466 63 474 72"/>
    <path d="M473 72C465 80 469 90 481 96"/>
    <path d="M474 95C465 95 458 94 451 90"/>
    <path d="M279 141L304 141"/>
    <path d="M305 141C307 129 308 118 312 107C318 92 331 83 344 79"/>
    <path d="M398 95L414 121C420 130 430 139 447 141"/>
    <path d="M446 141L474 141"/>
    <path d="M127 85C113 97 100 111 88 116C77 121 67 126 55 128"/>
    <path d="M112 117C122 120 137 119 155 116C170 113 188 106 204 102C222 98 243 100 265 106"/>
    <path d="M142 117C127 123 118 132 110 142"/>
    <path d="M109 142L135 142"/>
    <path d="M232 107C237 112 238 118 235 124C232 129 228 132 226 137"/>
    <path d="M226 137L248 142"/>
    <path d="M206 133C197 137 194 142 198 146"/>
    <path d="M198 146L220 146"/>
    <path d="M66 127C58 132 54 138 56 143"/>
    <path d="M56 143L80 143"/>
  </g>
</svg>
